<svg width="110" height="119" viewBox="0 0 110 119" fill="none" xmlns="http://www.w3.org/2000/svg">
<g clip-path="url(#clip0_72_9)">
<path d="M24.6327 83.138C22.6564 83.5255 21.033 83.7721 19.7273 83.913C18.845 84.0186 18.2098 83.8777 17.751 83.5255C17.2923 83.1732 17.0452 82.6095 16.9394 81.7641L16.5159 77.7129C16.41 76.8322 16.5865 76.1628 16.9394 75.7401C17.3276 75.2821 17.9628 75.0355 18.9156 74.9298L23.7151 74.4367L23.8916 76.198L19.6214 76.6208C19.0921 76.6912 18.845 76.9378 18.9156 77.4662L19.3391 81.5175C19.3744 81.6936 19.445 81.8697 19.5508 81.9754C19.692 82.0811 19.8332 82.1163 20.0096 82.0811C20.1861 82.0459 20.3978 82.0459 20.6096 82.0107C20.8213 81.9754 21.0683 81.9402 21.3154 81.905C21.5624 81.8697 21.8094 81.8345 22.0212 81.7993C22.2682 81.7641 22.5858 81.7288 22.974 81.6584C23.3622 81.5879 23.821 81.5175 24.4209 81.4118L24.6327 83.138Z" fill="#00597A"/>
<path d="M28.4087 82.8914L25.7972 83.0675L28.691 73.9787L31.3731 73.8025L35.5374 82.3982L32.9259 82.5743L32.2201 81.0243L28.9028 81.2709L28.4087 82.8914ZM29.3969 79.5799L31.5143 79.439L30.2438 76.5503L29.3969 79.5799Z" fill="#00597A"/>
<path d="M43.9718 81.9402C41.9955 82.1868 40.3369 82.3277 39.0311 82.3982C38.1489 82.4334 37.5136 82.2573 37.0901 81.905C36.6667 81.5175 36.4196 80.9186 36.3843 80.1083L36.2079 76.0571C36.1726 75.1764 36.3491 74.5071 36.7725 74.0844C37.196 73.6616 37.8665 73.4503 38.7841 73.415L43.5836 73.2037L43.6542 74.9651L39.384 75.1412C38.8547 75.1764 38.6076 75.423 38.6076 75.9515L38.7841 80.0027C38.7841 80.214 38.8547 80.3549 38.9958 80.4606C39.137 80.5663 39.2782 80.6368 39.4546 80.6015C39.6311 80.6015 39.8428 80.5663 40.0545 80.5663C40.2663 80.5663 40.5133 80.5311 40.7603 80.5311C41.0074 80.4959 41.2544 80.4958 41.5014 80.4606C41.7485 80.4254 42.0661 80.4254 42.4543 80.3549C42.8425 80.3197 43.3365 80.2493 43.9012 80.214L43.9718 81.9402Z" fill="#00597A"/>
<path d="M54.206 81.8345L51.8062 81.8697L51.7356 78.2413L48.3831 78.2765L48.4536 81.905L46.0539 81.9402L45.9127 73.0628L48.3125 73.0275L48.3478 76.5151L51.7004 76.4799L51.6651 72.9923L54.0648 72.9571L54.206 81.8345Z" fill="#00597A"/>
<path d="M58.6878 81.905L56.0764 81.8697L59.7818 73.0628L62.4639 73.098L65.8518 82.0459L63.2403 82.0107L62.6757 80.4254L59.3231 80.3549L58.6878 81.905ZM59.9583 78.6992L62.111 78.7345L61.0876 75.7401L59.9583 78.6992Z" fill="#00597A"/>
<path d="M70.0513 80.3902L74.9214 80.6015L74.8508 82.3629L67.581 82.0459L68.0045 73.1684L70.4042 73.2741L70.0513 80.3902Z" fill="#00597A"/>
<path d="M84.9086 80.7777C84.838 81.6584 84.591 82.2925 84.1322 82.6448C83.6734 82.997 83.0029 83.1732 82.05 83.1027L78.7328 82.8561C77.8152 82.7857 77.1447 82.5391 76.7565 82.1163C76.3683 81.6936 76.1918 81.0243 76.2624 80.1436L76.58 76.0924C76.6506 75.2117 76.8977 74.5776 77.3564 74.2253C77.8152 73.873 78.4857 73.6969 79.4386 73.7673L82.7559 74.0139C83.6734 74.0844 84.3439 74.331 84.7321 74.7537C85.1203 75.1764 85.2968 75.8458 85.2262 76.7265L84.9086 80.7777ZM82.8264 76.5503C82.8617 76.0571 82.6147 75.7753 82.0853 75.7401L79.8268 75.5639C79.2974 75.5287 79.0151 75.7401 78.9798 76.2685L78.6622 80.3197C78.6269 80.8129 78.8739 81.0947 79.4033 81.13L81.6618 81.3061C82.1912 81.3413 82.4735 81.13 82.5088 80.6015L82.8264 76.5503Z" fill="#00597A"/>
<path d="M90.5903 83.7368L88.1906 83.4902L88.9317 76.4094L86.1437 76.1276L86.3202 74.3662L94.2958 75.2117L94.1193 76.9731L91.3314 76.6912L90.5903 83.7368Z" fill="#00597A"/>
<path d="M110 76.4799L108.659 76.2685C105.765 75.8105 102.307 75.3526 98.8483 74.9298L99.5893 68.9411L98.9541 68.8706C96.2015 68.5184 93.4135 68.2013 90.6256 67.9195C88.8258 58.0557 85.6144 47.3816 81.5207 37.2712C81.0619 37.4473 80.6031 37.6234 80.1091 37.8348C84.0969 47.6986 87.2377 58.1261 89.0375 67.7786C87.9788 67.6729 86.8848 67.5672 85.8261 67.4967C84.0263 58.3375 80.9913 48.4032 77.18 38.9973C76.7212 39.1735 76.2271 39.3496 75.7684 39.561C76.2977 40.8644 76.7918 42.2031 77.3211 43.5065L60.1347 61.05C60.0289 60.7682 59.9583 60.4864 59.8524 60.2046L72.9099 40.7235C72.5217 40.8996 72.0982 41.0406 71.71 41.2167L59.5701 59.3239C59.4289 58.7954 59.2878 58.267 59.1466 57.7386L64.5813 44.7395C64.1931 44.9861 63.8402 45.2327 63.4873 45.4793L58.9349 56.5056C58.4761 53.934 58.5114 51.468 59.4642 48.6146C62.358 39.878 85.7202 36.4609 87.5201 31.7052C68.2868 28.8517 57.0645 29.0631 55.2647 32.9029C55.1588 33.1143 54.9118 33.1143 54.8059 32.9029C53.0061 29.0631 41.7485 28.8517 22.5505 31.7052C24.315 36.4609 47.7125 39.878 50.6063 48.6146C51.5592 51.468 51.5945 53.934 51.1357 56.5056L46.4421 45.444C46.0892 45.1975 45.7363 44.9509 45.3481 44.7043L50.7828 57.7034C50.6769 58.2318 50.5358 58.7602 50.3593 59.2886L38.2547 41.2167C37.8665 41.0406 37.4431 40.8996 37.0549 40.7235L50.1123 60.2046C50.0417 60.4864 49.9358 60.7682 49.83 61.05L32.6436 43.5065C33.1376 42.1679 33.667 40.8644 34.1963 39.561C33.7376 39.3848 33.2435 39.2087 32.7847 38.9973C28.9734 48.4032 25.9384 58.3375 24.1386 67.4967C23.0799 67.6024 21.9859 67.6729 20.9272 67.7786C22.727 58.1261 25.8678 47.7339 29.8556 37.8348C29.3616 37.6587 28.9028 37.4473 28.444 37.2712C24.3503 47.3816 21.1389 58.0557 19.3391 67.9195C16.5512 68.2013 13.7985 68.5184 11.0106 68.8706L10.3754 68.9411L11.1165 74.9298C7.69329 75.3526 4.19955 75.8105 1.30574 76.2685L0 76.4799L0.98813 77.3958C3.77607 79.9674 6.564 82.5743 9.24607 85.2164C7.37568 88.4574 5.50529 91.7688 3.70549 95.0802L3.07026 96.2428L4.376 96.0314C9.24607 95.2564 15.9159 94.4814 20.9272 93.9177C21.7741 95.3621 22.7976 96.8064 23.9269 98.2507C24.068 98.4269 24.2092 98.603 24.3856 98.8144C25.9384 100.717 27.7029 102.654 29.6439 104.486C29.8203 104.662 29.9968 104.803 30.1732 104.979C32.1495 106.811 34.3022 108.608 36.5961 110.263C36.7725 110.404 36.9843 110.545 37.196 110.686C39.7722 112.518 42.4896 114.209 45.2775 115.653C45.4893 115.759 45.701 115.865 45.948 116.006C47.5361 116.816 49.1242 117.556 50.7475 118.19C51.9827 118.683 53.3237 118.965 54.6295 119C54.7353 119 54.8765 119 54.9824 119C55.0882 119 55.2294 119 55.3353 119C56.6763 118.965 57.982 118.683 59.2172 118.19C60.8406 117.556 62.4286 116.816 64.0167 116.006C64.2284 115.9 64.4402 115.794 64.6872 115.653C67.5104 114.174 70.2278 112.518 72.7687 110.686C72.9804 110.545 73.1569 110.404 73.3686 110.263C75.6625 108.608 77.8152 106.846 79.7915 104.979C79.9679 104.803 80.1444 104.662 80.3208 104.486C82.2618 102.654 84.0616 100.717 85.5791 98.8144C85.7202 98.6382 85.8614 98.4621 86.0379 98.2507C87.1671 96.8064 88.1906 95.3621 89.0375 93.9177C94.0488 94.4461 100.719 95.2564 105.589 96.0314L106.894 96.2428L106.259 95.0802C104.459 91.7688 102.624 88.4574 100.719 85.2164C103.401 82.5743 106.189 79.9674 108.977 77.3958L110 76.4799ZM84.2733 67.3911C78.3093 66.8979 72.3452 66.5456 66.3458 66.3694L83.7793 65.066C83.9557 65.841 84.0969 66.616 84.2733 67.3911ZM83.6381 64.3615L61.7581 65.9819C61.7228 65.8058 61.6522 65.6649 61.6169 65.4887L82.5794 60.0636C82.9676 61.508 83.2852 62.9171 83.6381 64.3615ZM82.4029 59.3591L61.3699 64.8194C61.3346 64.6785 61.264 64.5376 61.2287 64.3967L81.2384 55.2374C81.6618 56.5761 82.05 57.9852 82.4029 59.3591ZM81.0266 54.4976L60.9817 63.6921C60.9111 63.516 60.8758 63.3398 60.8053 63.1989L79.5797 50.0237C80.1091 51.5033 80.5679 53.0181 81.0266 54.4976ZM77.6035 44.2463C78.2387 45.9372 78.8033 47.593 79.368 49.2839L60.5935 62.4591C60.5229 62.2478 60.4524 62.0364 60.3818 61.825L77.6035 44.2463ZM32.3965 44.2463L49.6182 61.825C49.5476 62.0364 49.4771 62.2478 49.4065 62.4591L30.632 49.3191C31.1967 47.6282 31.7613 45.9372 32.3965 44.2463ZM30.385 50.0237L49.1594 63.1989C49.0889 63.3751 49.0536 63.516 48.983 63.6921L28.9381 54.4976C29.3969 53.0181 29.8909 51.5033 30.385 50.0237ZM28.7616 55.2022L48.7713 64.3615C48.736 64.5024 48.6654 64.6433 48.6301 64.7842L27.597 59.3239C27.95 57.9852 28.3381 56.5761 28.7616 55.2022ZM27.4206 60.0636L48.3831 65.4887C48.3478 65.6297 48.2772 65.8058 48.2419 65.9819L26.3619 64.3615C26.6795 62.9171 27.0324 61.508 27.4206 60.0636ZM26.2207 65.066L43.6542 66.3694C37.6548 66.5456 31.6907 66.8979 25.7267 67.3911C25.8678 66.616 26.0443 65.841 26.2207 65.066ZM54.0295 67.4615C54.1354 67.4615 54.206 67.4615 54.2765 67.4615C54.3471 67.4615 54.4177 67.4615 54.453 67.4615C54.4883 67.4615 54.5589 67.4615 54.6295 67.4615C54.6647 67.4615 54.7 67.4615 54.7353 67.4615H55.5117C55.5823 67.4615 55.6529 67.4615 55.7234 67.4615H55.9705C70.0513 67.4967 84.1322 68.3774 98.1424 70.1036L95.6721 89.796C89.1434 88.9858 82.5794 88.3869 75.9801 87.9642C75.6272 87.9289 75.2743 87.929 74.9214 87.8937C72.9804 87.788 71.0395 87.6824 69.0632 87.6119C68.7809 87.6119 68.4633 87.5767 68.1809 87.5767C66.734 87.5062 65.2518 87.471 63.8049 87.4358C63.5579 87.4358 63.2756 87.4358 63.0286 87.4005C61.7228 87.3653 60.4524 87.3301 59.1466 87.3301C58.8996 87.3301 58.6525 87.3301 58.4408 87.3301C57.3821 87.3301 56.3587 87.3301 55.3 87.3301H54.5942C53.5354 87.3301 52.512 87.3301 51.4533 87.3653C51.2063 87.3653 50.9593 87.3653 50.7475 87.3653C49.4418 87.3653 48.1713 87.4005 46.8656 87.4358C46.6185 87.4358 46.3362 87.4358 46.0892 87.471C44.6423 87.5062 43.1601 87.5414 41.7132 87.6119C41.4309 87.6119 41.1485 87.6471 40.8309 87.6471C38.89 87.7176 36.949 87.8233 34.9727 87.929C34.6198 87.9642 34.2669 87.9642 33.914 87.9994C27.35 88.4221 20.786 89.021 14.222 89.8313L11.7517 70.1388C25.8325 68.3774 39.9487 67.4967 54.0295 67.4615ZM28.197 93.8825C27.8088 93.3541 27.4206 92.8609 27.103 92.3325C28.2676 91.9097 29.5027 91.5574 30.8085 91.2051L28.197 93.8825ZM32.1142 90.9233C34.4081 90.3949 36.8784 89.9369 39.5605 89.6199L33.0671 99.378C31.4084 97.7223 29.9262 96.1018 28.6558 94.4814L32.1142 90.9233ZM40.478 89.479C42.0661 89.3028 43.7247 89.1267 45.454 89.021L38.9958 104.486C37.0196 103.007 35.2198 101.456 33.5611 99.8712L40.478 89.479ZM46.2656 88.9858C47.642 88.8801 49.0536 88.8097 50.5005 88.7744L46.5127 109.383C44.0776 108.044 41.7485 106.529 39.5958 104.944L46.2656 88.9858ZM51.2416 88.7392C52.3356 88.704 53.5002 88.6687 54.6647 88.6687V108.044C54.0295 108.079 53.359 108.255 52.7591 108.537L50.3593 109.7C49.3712 110.193 48.1713 110.158 47.1832 109.7L51.2416 88.7392ZM54.6295 88.6335C54.5942 88.6335 54.5589 88.6335 54.5236 88.6335H55.4058C55.3705 88.6335 55.3353 88.6335 55.3 88.6335C55.1941 88.6335 55.0529 88.6687 54.9471 88.6687C54.8765 88.6687 54.7706 88.6335 54.6295 88.6335ZM55.3353 88.6687C56.4998 88.6687 57.6291 88.704 58.7584 88.7392L62.8168 109.7C61.8287 110.193 60.6288 110.193 59.6407 109.7L57.2409 108.537C56.641 108.255 56.0058 108.079 55.3353 108.044V88.6687ZM59.4995 88.7744C60.9464 88.8097 62.358 88.8801 63.7344 88.9858L70.4042 104.909C68.2515 106.494 65.9224 108.009 63.4873 109.348L59.4995 88.7744ZM64.5107 89.021C66.24 89.1619 67.8986 89.3028 69.4867 89.479L76.4036 99.8712C74.7449 101.456 72.9451 103.007 70.9689 104.486L64.5107 89.021ZM70.4395 89.6199C73.1216 89.9722 75.6272 90.3949 77.8858 90.9233L81.3442 94.4814C80.0738 96.1018 78.5916 97.7576 76.9329 99.378L70.4395 89.6199ZM79.1915 91.2404C80.4973 91.5927 81.7324 91.9449 82.897 92.3677C82.5441 92.8961 82.1912 93.3893 81.803 93.9177L79.1915 91.2404ZM5.50529 94.5518C7.16394 91.487 10.9047 85.005 10.9047 85.005C10.9047 85.005 5.47 79.7561 2.85852 77.3606C5.32884 77.0083 8.32852 76.5855 11.2929 76.2333L13.1986 91.3461L18.1392 92.8961C14.0456 93.3893 9.1402 93.9882 5.50529 94.5518ZM85.0144 97.1939C84.8733 97.37 84.7321 97.5462 84.5557 97.7575C83.0735 99.6246 81.3795 101.456 79.4739 103.218C79.2974 103.394 79.1209 103.535 78.9445 103.711C77.0388 105.472 74.9567 107.199 72.7687 108.819C72.5922 108.96 72.3805 109.101 72.1687 109.242C69.6984 111.003 67.0869 112.659 64.3696 114.068C64.1578 114.174 63.9461 114.279 63.6991 114.42C62.0404 115.266 60.3465 116.041 58.6173 116.745C57.5586 117.168 56.4293 117.415 55.3 117.45C55.0529 117.45 54.8412 117.45 54.5942 117.45C53.4649 117.415 52.3356 117.168 51.2769 116.745C49.5476 116.041 47.8537 115.266 46.1951 114.42C45.9833 114.315 45.7716 114.209 45.5245 114.068C42.8072 112.624 40.1957 111.003 37.7254 109.242C37.5489 109.101 37.3372 108.96 37.1254 108.819C34.9021 107.199 32.8553 105.508 30.9496 103.711C30.7732 103.535 30.5967 103.394 30.4203 103.218C28.5499 101.421 26.8207 99.5894 25.3385 97.7575C25.1973 97.5814 25.0561 97.4053 24.8797 97.1939C23.0799 94.9041 21.6683 92.579 20.6801 90.3949C21.7741 90.2892 22.8681 90.1483 23.9621 90.0779C24.7738 91.6279 25.8325 93.2836 27.103 94.9745C27.2441 95.1507 27.3853 95.3621 27.5265 95.5382C28.8675 97.2291 30.4203 98.9553 32.1495 100.646C32.326 100.822 32.5024 100.963 32.6789 101.139C34.4081 102.795 36.3138 104.38 38.3253 105.93C38.5018 106.071 38.7135 106.212 38.9252 106.353C41.1838 108.009 43.5836 109.559 46.1245 110.968C46.1598 111.003 46.2303 111.038 46.3009 111.074C46.3715 111.109 46.4068 111.144 46.4774 111.144C46.5833 111.215 46.6891 111.25 46.795 111.32C48.6301 112.307 50.5005 113.187 52.4062 113.962C53.112 114.244 53.8178 114.42 54.5942 114.456C54.8412 114.456 55.0529 114.456 55.3 114.456C56.0411 114.42 56.7822 114.244 57.488 113.962C59.3936 113.187 61.2993 112.307 63.0991 111.32C63.205 111.25 63.3109 111.215 63.4167 111.144C63.4873 111.109 63.5226 111.109 63.5932 111.074C63.6638 111.038 63.6991 111.003 63.7696 110.968C66.3106 109.594 68.7103 108.009 70.9689 106.353C71.1453 106.212 71.3571 106.071 71.5688 105.93C73.6157 104.416 75.486 102.795 77.2153 101.139C77.3917 100.963 77.5682 100.822 77.7446 100.646C79.4739 98.9553 81.0266 97.2291 82.3677 95.5382C82.5088 95.3621 82.65 95.1507 82.7911 94.9745C84.0616 93.2836 85.1203 91.6631 85.932 90.0779C87.026 90.1835 88.12 90.2892 89.214 90.3949C88.2259 92.6143 86.8142 94.9041 85.0144 97.1939ZM99.0953 85.005C99.0953 85.005 102.836 91.487 104.495 94.5518C100.86 93.9882 95.9544 93.3893 91.8608 92.9313L96.8014 91.3813L98.7071 76.2685C101.671 76.6208 104.671 77.0083 107.141 77.3958C104.53 79.7561 99.0953 85.005 99.0953 85.005Z" fill="#00597A"/>
<path d="M49.6182 3.9103C50.9945 2.3955 52.9708 1.5148 55.0176 1.5148C57.0645 1.5148 59.0407 2.3955 60.4171 3.9103C66.0282 10.1104 71.4629 18.8822 76.1566 28.7108C76.7212 28.7812 77.3211 28.8165 77.9211 28.8869C73.0863 18.5651 67.4398 9.33541 61.5816 2.88869C59.8524 1.05684 57.488 0 55.0176 0C52.5473 0 50.1476 1.05684 48.4889 2.88869C42.6307 9.37063 36.9843 18.6004 32.1495 28.8869C32.7494 28.8165 33.3494 28.7812 33.914 28.7108C38.5723 18.9174 44.0071 10.1104 49.6182 3.9103Z" fill="#00597A"/>
<path d="M62.8521 28.3937L64.9342 17.7901C66.9458 21.0311 68.922 24.5891 70.7571 28.3233C71.3218 28.3585 71.8864 28.3937 72.4864 28.429C68.1104 19.4811 63.1697 11.5548 58.1232 5.98875C56.4998 4.19213 53.5354 4.19213 51.9121 5.98875C46.8656 11.59 41.8896 19.5163 37.5136 28.4642C38.1136 28.429 38.6782 28.3937 39.2429 28.3585C41.1132 24.6243 43.0542 21.0663 45.0658 17.8253L47.1479 28.429C47.3949 28.4642 47.642 28.4642 47.889 28.4994L45.6304 16.9094C48.0302 13.14 50.5005 9.75814 53.0061 7.01036C53.4296 6.5524 54.0295 6.27057 54.6295 6.16489V29.5562C54.6295 29.7676 54.8059 29.9085 54.9824 29.9085C55.1941 29.9085 55.3353 29.7324 55.3353 29.5562V6.16489C55.9352 6.23535 56.4998 6.51717 56.9586 6.97513C59.4642 9.75814 61.9346 13.1048 64.3343 16.8742L62.111 28.4994C62.358 28.4642 62.6051 28.429 62.8521 28.3937Z" fill="#00597A"/>
</g>
<defs>
<clipPath id="clip0_72_9">
<rect width="110" height="119" fill="white"/>
</clipPath>
</defs>
</svg>
