<svg xmlns="http://www.w3.org/2000/svg" viewBox="0 0 1077.47 145.88"><title>Sodaem-prostranstvo-mechti</title><path d="M37.94,49.7l.8,6.08a59.89,59.89,0,0,1-16.4,1.92q-12.07,0-17-6.4T.5,29.14Q.5,13.37,5.38,7t17-6.4a65.42,65.42,0,0,1,15.28,1.6l-.8,6.16Q30.41,7.7,22.34,7.7q-7.6,0-10.52,4.64T8.9,29.14q0,12.17,2.92,16.8t10.52,4.64A104,104,0,0,0,37.94,49.7Z" style="fill:#fff"/><path d="M22.34,58.2C14.16,58.2,8.32,56,5,51.6S0,39.71,0,29.14,1.68,11,5,6.68,14.16.08,22.34.08a66.52,66.52,0,0,1,15.4,1.61l.43.11-.92,7.09-.48-.05c-4.24-.43-9.09-.64-14.43-.64-4.86,0-8.26,1.48-10.1,4.41S9.4,21.17,9.4,29.14s1,13.54,2.84,16.53,5.24,4.41,10.1,4.41a104.46,104.46,0,0,0,15.52-.87l.51-.09.92,7-.41.12A60.57,60.57,0,0,1,22.34,58.2Zm0-57.12c-7.85,0-13.42,2.09-16.56,6.2S1,18.79,1,29.14,2.61,46.84,5.78,51s8.71,6.2,16.56,6.2a60.87,60.87,0,0,0,15.85-1.78l-.68-5.15a109.28,109.28,0,0,1-15.17.81c-5.23,0-8.91-1.64-10.94-4.87s-3-8.79-3-17.07,1-13.86,3-17.07S17.11,7.2,22.34,7.2s9.89.2,14.05.6l.68-5.24A66.59,66.59,0,0,0,22.34,1.08Z" style="fill:#b3ab7f"/><path d="M73.38.5Q85.7.5,90.58,6.74t4.88,22.4q0,16.15-4.88,22.4t-17.2,6.24q-12.24,0-17.12-6.24t-4.88-22.4q0-16.15,4.88-22.4T73.38.5ZM84.1,12.26q-3-4.63-10.72-4.64T62.7,12.26q-2.93,4.64-2.92,16.88T62.7,46q2.92,4.63,10.68,4.64T84.1,46q3-4.64,3-16.88T84.1,12.26Z" style="fill:#fff"/><path d="M73.38,58.28c-8.28,0-14.18-2.16-17.51-6.43s-5-11.87-5-22.71,1.68-18.48,5-22.71S65.1,0,73.38,0,87.64,2.16,91,6.43s5,11.87,5,22.71-1.68,18.48-5,22.71S81.72,58.28,73.38,58.28ZM73.38,1c-8,0-13.59,2-16.73,6.05s-4.77,11.48-4.77,22.09,1.61,18,4.77,22.09,8.77,6.05,16.73,6.05,13.67-2,16.81-6.05S95,39.75,95,29.14s-1.61-18-4.77-22.09S81.39,1,73.38,1Zm0,50.16c-5.33,0-9.07-1.64-11.1-4.87s-3-8.81-3-17.15,1-13.94,3-17.15,5.77-4.87,11.1-4.87S82.46,8.76,84.52,12h0c2,3.16,3,8.93,3,17.15s-1,14-3,17.15S78.71,51.16,73.38,51.16Zm0-43c-5,0-8.42,1.48-10.26,4.41s-2.84,8.58-2.84,16.61,1,13.62,2.84,16.61,5.29,4.41,10.26,4.41,8.43-1.48,10.3-4.41,2.88-8.58,2.88-16.61-1-13.61-2.88-16.61h0C81.81,9.6,78.35,8.12,73.38,8.12Z" style="fill:#b3ab7f"/><path d="M110.18,8.34l-.64-6.16A88.2,88.2,0,0,1,125.06.9q10.32,0,14.28,3t4,11.4q0,6-2.2,9.08T134,27.94v.32q5.92.55,8.4,4.2T144.9,43q0,8.33-3.92,11.36t-13.52,3a83.1,83.1,0,0,1-19.28-1.92l.72-5.76a138.14,138.14,0,0,0,17.2,1.12q6.08,0,8.36-1.84t2.28-7.36q0-6-2.44-8.16t-8.76-2.16H116.1V25h9.44q5.52,0,7.64-1.8t2.12-6.92q0-5.28-2.28-7.08t-8.44-1.8A143.81,143.81,0,0,0,110.18,8.34Z" style="fill:#fff"/><path d="M127.46,57.88A84.21,84.21,0,0,1,108.06,56l-.43-.11.84-6.7.49.06a139,139,0,0,0,17.14,1.12c3.92,0,6.62-.58,8.05-1.73s2.09-3.46,2.09-7c0-3.83-.76-6.45-2.27-7.79s-4.36-2-8.43-2H115.6V24.48h9.94c3.54,0,6-.57,7.32-1.68s1.94-3.3,1.94-6.54-.7-5.59-2.09-6.69-4.16-1.69-8.13-1.69a142.61,142.61,0,0,0-14.35,1l-.5.05L109,1.77l.46-.08A88.34,88.34,0,0,1,125.06.4c7.06,0,11.83,1,14.58,3.1s4.16,6.06,4.16,11.8c0,4.09-.77,7.24-2.29,9.37a9,9,0,0,1-5.33,3.41,10.26,10.26,0,0,1,6.65,4.1c1.71,2.5,2.57,6.13,2.57,10.8,0,5.68-1.38,9.64-4.11,11.76S133.94,57.88,127.46,57.88Zm-18.73-2.8a84.6,84.6,0,0,0,18.73,1.8c6.26,0,10.7-1,13.21-2.93s3.73-5.61,3.73-11c0-4.46-.81-7.91-2.39-10.24s-4.26-3.62-8-4l-.45,0V27.49l.45,0c3.09-.3,5.35-1.43,6.72-3.35s2.11-4.92,2.11-8.79c0-5.41-1.27-9.11-3.76-11s-7.24-2.9-14-2.9a88.47,88.47,0,0,0-15,1.19l.54,5.2c5.78-.6,10.47-.91,14-.91,4.26,0,7.12.62,8.75,1.91s2.47,3.81,2.47,7.47-.75,6-2.3,7.3-4.12,1.92-8,1.92H116.6V30.8h8.94c4.38,0,7.35.75,9.09,2.29s2.61,4.4,2.61,8.53c0,3.88-.81,6.41-2.47,7.75s-4.46,2-8.67,2a140.49,140.49,0,0,1-16.77-1.06Z" style="fill:#b3ab7f"/><path d="M209,50.26V68.82h-5.44l-.72-12.08H163.46l-.72,12.08h-5.52V50.26h5.44q6.41-14,7.84-38a10.57,10.57,0,0,1,3.32-7.84,12.18,12.18,0,0,1,8.52-2.88h19.84V50.26Zm-14.8,0V8h-10.4a5.81,5.81,0,0,0-4.12,1.2c-.83.8-1.32,2.21-1.48,4.24a174.89,174.89,0,0,1-2.56,20.92,64.31,64.31,0,0,1-5.28,15.88Z" style="fill:#fff"/><path d="M209.48,69.32h-6.41l-.72-12.08H163.93l-.72,12.08h-6.49V49.76h5.62c4.14-9.21,6.72-21.83,7.66-37.53a11.09,11.09,0,0,1,3.48-8.18,12.68,12.68,0,0,1,8.86-3h20.34V49.76h6.8Zm-5.47-1h4.47V50.76h-6.8V2H182.34a11.74,11.74,0,0,0-8.18,2.75A10.11,10.11,0,0,0,171,12.28c-1,16-3.61,28.84-7.89,38.19l-.13.29h-5.26V68.32h4.55L163,56.24h40.3Zm-9.33-17.56H169.54l.35-.72a64.17,64.17,0,0,0,5.24-15.76,173.68,173.68,0,0,0,2.55-20.86c.17-2.17.71-3.66,1.63-4.56a6.29,6.29,0,0,1,4.47-1.34h10.9Zm-23.55-1h22.55V8.52h-9.9A5.38,5.38,0,0,0,180,9.58c-.74.71-1.18,2-1.33,3.92a176.11,176.11,0,0,1-2.57,21A65.15,65.15,0,0,1,171.13,49.76Z" style="fill:#b3ab7f"/><path d="M253.46,40.1h-22l-5.12,16.64h-8.16l17.28-53a2.8,2.8,0,0,1,3-2.16h8.16a2.61,2.61,0,0,1,2.88,2.16l17.36,53h-8.24Zm-2.08-7-6.48-21c-.16-.48-.39-1.23-.68-2.24s-.52-1.76-.68-2.24h-2.16l-1.28,4.48-6.48,21Z" style="fill:#fff"/><path d="M267.51,57.24h-9.3L253.09,40.6H231.83l-5.12,16.64h-9.22L235,3.55A3.3,3.3,0,0,1,238.42,1h8.16A3.1,3.1,0,0,1,250,3.59Zm-8.56-1h7.18L249,3.86A2.14,2.14,0,0,0,246.58,2h-8.16a2.29,2.29,0,0,0-2.48,1.8l-17.07,52.4H226l5.12-16.64h22.74Zm-6.89-22.6H232.94L239.62,12,241,7.2h2.9l.11.34c.17.49.39,1.24.69,2.26s.51,1.75.67,2.22Zm-17.76-1h16.4l-6.28-20.31c-.16-.48-.39-1.23-.68-2.25-.23-.79-.42-1.42-.56-1.88h-1.42l-1.18,4.12Z" style="fill:#b3ab7f"/><path d="M314.18,50.1l.32,6.16q-7.28.65-23.68.64-5.13,0-8.08-2.68a9.26,9.26,0,0,1-3-7.24V11.3a9.26,9.26,0,0,1,3-7.24q3-2.68,8.08-2.68,16.4,0,23.68.64l-.32,6.24h-22a4.29,4.29,0,0,0-3.4,1.16,6.07,6.07,0,0,0-1,4v11h23.28V30.9H287.78V45a6.07,6.07,0,0,0,1,4,4.29,4.29,0,0,0,3.4,1.16Z" style="fill:#fff"/><path d="M290.82,57.4a12.1,12.1,0,0,1-8.42-2.81A9.8,9.8,0,0,1,279.28,47V11.3a9.82,9.82,0,0,1,3.12-7.61A12.15,12.15,0,0,1,290.82.88c10.89,0,18.88.22,23.72.64l.48,0-.37,7.2H292.18a3.83,3.83,0,0,0-3,1,5.61,5.61,0,0,0-.88,3.63V23.92h23.28V31.4H288.28V45a5.61,5.61,0,0,0,.88,3.63,3.83,3.83,0,0,0,3,1h22.47l.37,7.12-.48,0C309.7,57.18,301.72,57.4,290.82,57.4Zm0-55.52a11.19,11.19,0,0,0-7.75,2.55,8.73,8.73,0,0,0-2.79,6.87V47a8.86,8.86,0,0,0,2.79,6.87,11.19,11.19,0,0,0,7.75,2.55c10.52,0,18.3-.2,23.15-.6l-.27-5.2H292.18a4.78,4.78,0,0,1-3.78-1.33A6.53,6.53,0,0,1,287.28,45V30.4h23.28V24.92H287.28V13.38a6.53,6.53,0,0,1,1.12-4.29,4.78,4.78,0,0,1,3.78-1.33H313.7L314,2.48C309.12,2.08,301.33,1.88,290.82,1.88Z" style="fill:#b3ab7f"/><path d="M375.06,1.54h8.72q3.12,0,3.28,3.28l2.24,51.92h-8L379.38,8.18h-1.6l-11.2,39.28a3.28,3.28,0,0,1-3.44,2.72h-7a3.32,3.32,0,0,1-3.52-2.72L341.38,8.18h-1.52L338,56.74H330.1l2.08-51.92c.1-2.19,1.2-3.28,3.28-3.28h8.88q2.48,0,3.36,2.72l9.36,32.32q.79,2.88,1.84,7.44h1.44c.64-2.83,1.28-5.33,1.92-7.52l9.28-32.24A3.46,3.46,0,0,1,375.06,1.54Z" style="fill:#fff"/><path d="M389.82,57.24h-9L378.9,8.68h-.75L367.06,47.6a3.77,3.77,0,0,1-3.92,3.08h-7a3.83,3.83,0,0,1-4-3.09L341,8.68h-.66L338.5,57.24h-8.92l2.1-52.44C331.8,2.34,333.1,1,335.46,1h8.88c1.29,0,3,.53,3.83,3.07l9.37,32.33c.51,1.85,1.1,4.23,1.76,7.08h.64c.61-2.66,1.23-5.07,1.84-7.16l9.28-32.24a4,4,0,0,1,4-3.08h8.72c2.35,0,3.66,1.3,3.78,3.76Zm-8-1h7l-2.22-51.4c-.1-1.91-1-2.8-2.78-2.8h-8.72A3,3,0,0,0,372,4.41l-9.27,32.23c-.64,2.17-1.28,4.69-1.91,7.49l-.09.39H358.5l-.09-.39c-.69-3-1.3-5.5-1.83-7.42L347.22,4.4A2.91,2.91,0,0,0,344.34,2h-8.88c-1.81,0-2.69.89-2.78,2.8l-2.06,51.4h6.92l1.84-48.56h2.37l11.39,39.64a2.82,2.82,0,0,0,3,2.36h7a2.77,2.77,0,0,0,2.95-2.35L377.4,7.68h2.46Z" style="fill:#b3ab7f"/><path d="M471.62,1.54v55.2h-8V8H439.38V56.74h-8V1.54Z" style="fill:#fff"/><path d="M472.12,57.24h-9V8.52H439.88V57.24h-9V1h41.24Zm-8-1h7V2H431.88v54.2h7V7.52h25.24Z" style="fill:#b3ab7f"/><path d="M491.06,56.74V1.54q6.79-.72,19.28-.72,10.23,0,14.12,3.68t3.88,13.76q0,10.15-3.72,13.84t-13.4,3.68a102.6,102.6,0,0,1-12.08-.72V56.74Zm8.08-27.84h11q5.83-.07,8-2.24t2.16-8.4q0-6.24-2.16-8.4t-8-2.16q-8,0-11,.08Z" style="fill:#fff"/><path d="M499.64,57.24h-9.08V1.09L491,1c4.53-.48,11-.72,19.34-.72,6.92,0,11.79,1.28,14.46,3.82s4,7.29,4,14.12-1.31,11.66-3.87,14.2-7.19,3.82-13.75,3.82a102.83,102.83,0,0,1-11.58-.66Zm-8.08-1h7.08V34.5l.55.06a101.76,101.76,0,0,0,12,.72c6.28,0,10.67-1.19,13-3.54s3.58-6.88,3.58-13.48-1.26-11-3.73-13.4S517,1.32,510.34,1.32c-8,0-14.31.23-18.78.67Zm7.58-26.84h-.5V7.29h.48c2,0,5.69-.08,11-.08,4.06,0,6.8.75,8.35,2.31s2.31,4.41,2.31,8.75-.76,7.2-2.31,8.75-4.28,2.34-8.35,2.39Zm.5-1H510.1c3.73,0,6.3-.75,7.64-2.09s2-4,2-8-.68-6.71-2-8-3.91-2-7.64-2c-4.88,0-8.39,0-10.46.07Z" style="fill:#b3ab7f"/><path d="M564.42.5q12.32,0,17.19,6.24t4.88,22.4q0,16.15-4.88,22.4t-17.19,6.24q-12.25,0-17.13-6.24t-4.87-22.4q0-16.15,4.87-22.4T564.42.5Zm10.71,11.76q-3-4.63-10.71-4.64t-10.69,4.64q-2.91,4.64-2.92,16.88T553.73,46q2.92,4.63,10.69,4.64T575.13,46q3-4.64,3-16.88T575.13,12.26Z" style="fill:#fff"/><path d="M564.42,58.28c-8.29,0-14.18-2.16-17.52-6.43s-5-11.87-5-22.71,1.67-18.48,5-22.71S556.13,0,564.42,0,578.67,2.16,582,6.43s5,11.87,5,22.71-1.67,18.48-5,22.71S572.75,58.28,564.42,58.28Zm0-57.28c-8,0-13.59,2-16.73,6.05s-4.77,11.48-4.77,22.09,1.6,18,4.77,22.09,8.76,6.05,16.73,6.05,13.66-2,16.8-6.05S586,39.75,586,29.14s-1.6-18-4.77-22.09S572.43,1,564.42,1Zm0,50.16c-5.34,0-9.07-1.64-11.11-4.87s-3-8.81-3-17.15,1-13.94,3-17.15,5.77-4.87,11.11-4.87,9.07,1.64,11.14,4.87h0c2,3.16,3,8.93,3,17.15s-1,14-3,17.15S569.75,51.16,564.42,51.16Zm0-43c-5,0-8.42,1.48-10.26,4.41s-2.85,8.58-2.85,16.61,1,13.62,2.85,16.61,5.29,4.41,10.26,4.41,8.43-1.48,10.29-4.41,2.88-8.58,2.88-16.61-1-13.61-2.88-16.61h0C572.85,9.6,569.38,8.12,564.42,8.12Z" style="fill:#b3ab7f"/><path d="M639.37,49.7l.8,6.08a59.84,59.84,0,0,1-16.4,1.92q-12.07,0-17-6.4t-4.88-22.16q0-15.77,4.88-22.16t17-6.4a65.36,65.36,0,0,1,15.28,1.6l-.8,6.16q-6.39-.64-14.48-.64-7.59,0-10.52,4.64t-2.92,16.8q0,12.17,2.92,16.8t10.52,4.64A103.86,103.86,0,0,0,639.37,49.7Z" style="fill:#fff"/><path d="M623.77,58.2c-8.18,0-14-2.22-17.35-6.6s-5-11.89-5-22.46,1.68-18.13,5-22.46,9.17-6.6,17.35-6.6a66.52,66.52,0,0,1,15.4,1.61l.44.11-.92,7.09-.49-.05c-4.23-.43-9.09-.64-14.43-.64-4.86,0-8.25,1.48-10.09,4.41s-2.85,8.56-2.85,16.53,1,13.54,2.85,16.53,5.23,4.41,10.09,4.41a104.37,104.37,0,0,0,15.52-.87l.51-.09.93,7-.42.12A60.52,60.52,0,0,1,623.77,58.2Zm0-57.12c-7.85,0-13.42,2.09-16.56,6.2s-4.78,11.51-4.78,21.86S604,46.84,607.21,51s8.71,6.2,16.56,6.2a60.87,60.87,0,0,0,15.85-1.78L639,50.27a109.34,109.34,0,0,1-15.18.81c-5.22,0-8.9-1.64-10.94-4.87s-3-8.79-3-17.07,1-13.86,3-17.07,5.72-4.87,10.94-4.87,9.9.2,14.05.6l.68-5.24A66.46,66.46,0,0,0,623.77,1.08Z" style="fill:#b3ab7f"/><path d="M693.85,8.66H676.33V56.74h-8.08V8.66H650.89V1.54h43Z" style="fill:#fff"/><path d="M676.83,57.24h-9.08V9.16H650.39V1h44V9.16H676.83Zm-8.08-1h7.08V8.16h17.52V2h-42V8.16h17.36Z" style="fill:#b3ab7f"/><path d="M708.41,56.74V1.54q6.81-.72,19.28-.72,10.24,0,14.12,3.68t3.88,13.76q0,10.15-3.72,13.84t-13.4,3.68a102.73,102.73,0,0,1-12.08-.72V56.74Zm8.08-27.84h11c3.9,0,6.56-.8,8-2.24s2.16-4.24,2.16-8.4-.72-7-2.16-8.4-4.1-2.16-8-2.16q-8,0-11,.08Z" style="fill:#fff"/><path d="M717,57.24h-9.08V1.09l.45-.05c4.53-.48,11-.72,19.33-.72,6.93,0,11.79,1.28,14.47,3.82s4,7.29,4,14.12-1.3,11.66-3.86,14.2-7.2,3.82-13.76,3.82A103,103,0,0,1,717,35.62Zm-8.08-1H716V34.5l.56.06a101.72,101.72,0,0,0,12,.72c6.29,0,10.68-1.19,13-3.54s3.57-6.88,3.57-13.48-1.25-11-3.72-13.4-7.12-3.54-13.78-3.54c-8,0-14.31.23-18.78.67Zm7.58-26.84H716V7.29h.49c2,0,5.68-.08,11-.08,4.07,0,6.8.75,8.36,2.31s2.3,4.41,2.3,8.75-.75,7.2-2.3,8.75-4.28,2.34-8.35,2.39Zm.5-1h10.46c3.74,0,6.31-.75,7.65-2.09s2-4,2-8-.67-6.71-2-8-3.91-2-7.65-2c-4.87,0-8.39,0-10.46.07Z" style="fill:#b3ab7f"/><path d="M788.25,40.1h-22l-5.12,16.64H753l17.28-53a2.8,2.8,0,0,1,3-2.16h8.16a2.6,2.6,0,0,1,2.88,2.16l17.36,53h-8.24Zm-2.08-7-6.48-21c-.16-.48-.38-1.23-.68-2.24s-.52-1.76-.68-2.24h-2.16l-1.28,4.48-6.48,21Z" style="fill:#fff"/><path d="M802.3,57.24H793L787.89,40.6H766.62L761.5,57.24h-9.21L769.78,3.55A3.29,3.29,0,0,1,773.21,1h8.16a3.1,3.1,0,0,1,3.37,2.55Zm-8.56-1h7.19L783.78,3.86A2.14,2.14,0,0,0,781.37,2h-8.16a2.31,2.31,0,0,0-2.48,1.8l-17.07,52.4h7.11l5.12-16.64h22.73Zm-6.89-22.6H767.74L774.42,12,775.8,7.2h2.89l.12.34c.16.49.39,1.24.68,2.26s.52,1.75.68,2.22Zm-17.76-1H785.5l-6.28-20.31q-.24-.72-.69-2.25c-.22-.79-.41-1.42-.56-1.88h-1.42l-1.18,4.12Z" style="fill:#b3ab7f"/><path d="M855.21,1.54v55.2h-8.08v-26H823.05v26h-8V1.54h8V23.86h24.08V1.54Z" style="fill:#fff"/><path d="M855.71,57.24h-9.08v-26H823.55v26h-9V1h9V23.36h23.08V1h9.08Zm-8.08-1h7.08V2h-7.08V24.36H822.55V2h-7v54.2h7v-26h25.08Z" style="fill:#b3ab7f"/><path d="M910.09,49.7l.8,6.08a59.84,59.84,0,0,1-16.4,1.92q-12.07,0-17-6.4t-4.88-22.16q0-15.77,4.88-22.16t17-6.4a65.36,65.36,0,0,1,15.28,1.6L909,8.34q-6.39-.64-14.48-.64-7.59,0-10.52,4.64t-2.92,16.8q0,12.17,2.92,16.8t10.52,4.64A103.86,103.86,0,0,0,910.09,49.7Z" style="fill:#fff"/><path d="M894.49,58.2c-8.18,0-14-2.22-17.35-6.6s-5-11.89-5-22.46,1.68-18.13,5-22.46,9.17-6.6,17.35-6.6a66.52,66.52,0,0,1,15.4,1.61l.44.11-.92,7.09-.49-.05c-4.23-.43-9.09-.64-14.43-.64-4.86,0-8.25,1.48-10.09,4.41s-2.85,8.56-2.85,16.53,1,13.54,2.85,16.53,5.23,4.41,10.09,4.41A104.46,104.46,0,0,0,910,49.21l.51-.09.92,7-.41.12A60.57,60.57,0,0,1,894.49,58.2Zm0-57.12c-7.85,0-13.42,2.09-16.56,6.2s-4.78,11.52-4.78,21.86,1.61,17.7,4.78,21.86,8.71,6.2,16.56,6.2a60.87,60.87,0,0,0,15.85-1.78l-.68-5.15a109.08,109.08,0,0,1-15.17.81c-5.22,0-8.91-1.64-10.94-4.87s-3-8.79-3-17.07,1-13.86,3-17.07,5.72-4.87,10.94-4.87,9.9.2,14,.6l.68-5.24A66.46,66.46,0,0,0,894.49,1.08Z" style="fill:#b3ab7f"/><path d="M964.57,8.66H947.05V56.74H939V8.66H921.61V1.54h43Z" style="fill:#fff"/><path d="M947.55,57.24h-9.08V9.16H921.11V1h44V9.16H947.55Zm-8.08-1h7.08V8.16h17.52V2h-42V8.16h17.36Z" style="fill:#b3ab7f"/><path d="M1006.65,27.94v.32q6,.55,8.52,4.2T1017.69,43q0,8.33-4,11.36t-13.8,3q-13.51,0-20.8-.64V1.54Q985.61.9,997.53.9q10.41,0,14.44,3t4,11.4c0,4-.74,7-2.24,9.08S1009.9,27.62,1006.65,27.94ZM987,25.06h11.2c3.84,0,6.5-.6,8-1.8s2.2-3.53,2.2-7-.8-5.69-2.4-6.84-4.53-1.72-8.8-1.72H987Zm0,25.44,11.76.08q6.32,0,8.6-1.8t2.28-7.16q0-6-2.44-8.16c-1.62-1.44-4.6-2.19-8.92-2.24H987Z" style="fill:#fff"/><path d="M999.93,57.88c-9,0-16-.22-20.84-.64l-.46,0V1.09l.45-.05C983.4.62,989.61.4,997.53.4c7,0,12,1,14.74,3.1s4.24,6.06,4.24,11.8c0,4.09-.78,7.24-2.33,9.37a9.06,9.06,0,0,1-5.35,3.41,10.4,10.4,0,0,1,6.75,4.1c1.73,2.5,2.61,6.13,2.61,10.8,0,5.68-1.4,9.64-4.15,11.76S1006.57,57.88,999.93,57.88Zm-20.3-1.6c4.8.4,11.63.6,20.3.6,6.42,0,11-1,13.5-2.94s3.76-5.6,3.76-11c0-4.46-.82-7.9-2.43-10.23s-4.33-3.63-8.15-4l-.46,0V27.49l.45,0c3.09-.3,5.37-1.43,6.77-3.35s2.14-4.92,2.14-8.79c0-5.41-1.29-9.11-3.84-11s-7.35-2.9-14.14-2.9c-7.62,0-13.63.2-17.9.59Zm19.1-5.2L986.47,51V30.72h11.78c4.49.06,7.52.83,9.25,2.37s2.61,4.4,2.61,8.53c0,3.77-.8,6.24-2.47,7.55S1003.1,51.08,998.73,51.08ZM987.47,50l11.27.08c4.07,0,6.86-.57,8.28-1.69s2.09-3.37,2.09-6.77c0-3.83-.76-6.45-2.27-7.79s-4.42-2.06-8.59-2.11H987.47Zm10.7-24.44h-11.7V7.2h10.66c4.42,0,7.39.59,9.09,1.81s2.61,3.68,2.61,7.25-.78,6.07-2.38,7.39S1002.17,25.56,998.17,25.56Zm-10.7-1h10.7c3.71,0,6.28-.57,7.65-1.69s2-3.32,2-6.61-.73-5.39-2.19-6.43-4.37-1.63-8.51-1.63h-9.66Z" style="fill:#b3ab7f"/><path d="M1054.89.5q12.31,0,17.2,6.24t4.88,22.4q0,16.15-4.88,22.4t-17.2,6.24q-12.24,0-17.12-6.24t-4.88-22.4q0-16.15,4.88-22.4T1054.89.5Zm10.72,11.76q-3-4.63-10.72-4.64t-10.68,4.64q-2.91,4.64-2.92,16.88T1044.21,46q2.93,4.63,10.68,4.64T1065.61,46q3-4.64,3-16.88T1065.61,12.26Z" style="fill:#fff"/><path d="M1054.89,58.28c-8.28,0-14.17-2.16-17.51-6.43s-5-11.87-5-22.71,1.68-18.48,5-22.71S1046.61,0,1054.89,0s14.26,2.16,17.6,6.43,5,11.87,5,22.71-1.68,18.48-5,22.71S1063.23,58.28,1054.89,58.28Zm0-57.28c-8,0-13.59,2-16.72,6.05s-4.78,11.48-4.78,22.09,1.61,18,4.78,22.09,8.76,6.05,16.72,6.05,13.67-2,16.81-6.05,4.77-11.48,4.77-22.09-1.6-18-4.77-22.09S1062.9,1,1054.89,1Zm0,50.16c-5.33,0-9.07-1.64-11.1-4.87s-3-8.81-3-17.15,1-13.94,3-17.15,5.77-4.87,11.1-4.87S1064,8.76,1066,12h0c2,3.16,3,8.93,3,17.15s-1,14-3,17.15S1060.22,51.16,1054.89,51.16Zm0-43c-5,0-8.41,1.48-10.25,4.41s-2.85,8.58-2.85,16.61,1,13.62,2.85,16.61,5.29,4.41,10.25,4.41,8.43-1.48,10.3-4.41,2.88-8.59,2.88-16.61-1-13.61-2.88-16.61S1059.86,8.12,1054.89,8.12Z" style="fill:#b3ab7f"/><path d="M437.06,89.54h8.72q3.12,0,3.28,3.28l2.24,51.92h-8l-1.92-48.56h-1.6l-11.2,39.28a3.28,3.28,0,0,1-3.44,2.72h-7a3.32,3.32,0,0,1-3.52-2.72L403.38,96.18h-1.52L400,144.74H392.1l2.08-51.92c.1-2.19,1.2-3.28,3.28-3.28h8.88q2.48,0,3.36,2.72l9.36,32.32q.79,2.88,1.84,7.44h1.44c.64-2.83,1.28-5.33,1.92-7.52l9.28-32.24A3.46,3.46,0,0,1,437.06,89.54Z" style="fill:#fff"/><path d="M451.82,145.24h-9L440.9,96.68h-.75L429.06,135.6a3.78,3.78,0,0,1-3.92,3.08h-7a3.83,3.83,0,0,1-4-3.09L403,96.68h-.66l-1.84,48.56h-8.92l2.1-52.44c.12-2.46,1.42-3.76,3.78-3.76h8.88c1.29,0,3,.53,3.83,3.07l9.37,32.33c.51,1.85,1.1,4.23,1.75,7.08h.65c.61-2.66,1.23-5.07,1.84-7.16l9.28-32.24a4,4,0,0,1,4-3.08h8.72c2.35,0,3.66,1.3,3.78,3.76Zm-8-1h7l-2.21-51.4c-.1-1.91-1-2.8-2.78-2.8h-8.72A3,3,0,0,0,434,92.41l-9.27,32.23c-.64,2.17-1.28,4.69-1.92,7.49l-.08.39H420.5l-.09-.39c-.69-3-1.31-5.5-1.84-7.42L409.22,92.4A2.91,2.91,0,0,0,406.34,90h-8.88c-1.81,0-2.69.89-2.78,2.8l-2.06,51.4h6.92l1.84-48.56h2.37l11.39,39.64a2.82,2.82,0,0,0,3,2.36h7a2.77,2.77,0,0,0,2.95-2.35L439.4,95.68h2.46Z" style="fill:#b3ab7f"/><path d="M503.54,138.1l.32,6.16q-7.29.65-23.68.64-5.13,0-8.08-2.68a9.26,9.26,0,0,1-3-7.24V99.3a9.26,9.26,0,0,1,3-7.24q3-2.69,8.08-2.68,16.4,0,23.68.64l-.32,6.24h-22a4.29,4.29,0,0,0-3.4,1.16,6.07,6.07,0,0,0-1,4v11h23.28v6.48H477.14V133a6.07,6.07,0,0,0,1,4,4.29,4.29,0,0,0,3.4,1.16Z" style="fill:#fff"/><path d="M480.18,145.4a12.1,12.1,0,0,1-8.42-2.81,9.82,9.82,0,0,1-3.12-7.61V99.3a9.82,9.82,0,0,1,3.12-7.61,12.15,12.15,0,0,1,8.42-2.81c10.89,0,18.87.22,23.72.64l.48,0-.37,7.2H481.54a3.87,3.87,0,0,0-3,1,5.68,5.68,0,0,0-.87,3.63v10.54h23.28v7.48H477.64V133a5.68,5.68,0,0,0,.87,3.63,3.87,3.87,0,0,0,3,1H504l.37,7.12-.48,0C499.06,145.18,491.08,145.4,480.18,145.4Zm0-55.52a11.19,11.19,0,0,0-7.75,2.55,8.73,8.73,0,0,0-2.79,6.87V135a8.86,8.86,0,0,0,2.79,6.87,11.17,11.17,0,0,0,7.75,2.55c10.52,0,18.3-.2,23.15-.6l-.27-5.2H481.54a4.78,4.78,0,0,1-3.78-1.33c-.76-.88-1.12-2.28-1.12-4.29V118.4h23.28v-5.48H476.64V101.38c0-2,.36-3.41,1.12-4.29a4.78,4.78,0,0,1,3.78-1.33h21.52l.27-5.28C498.47,90.08,490.69,89.88,480.18,89.88Z" style="fill:#b3ab7f"/><path d="M557.46,89.54v55.2h-8V120.1A39,39,0,0,1,531,124.9q-6.4,0-9.48-3.12t-3.08-9.52V89.54h8v21.12q-.09,3.77,1.64,5.44c1.14,1.12,3.08,1.68,5.8,1.68a37.41,37.41,0,0,0,15.6-3.84V89.54Z" style="fill:#fff"/><path d="M558,145.24h-9V120.92a39.5,39.5,0,0,1-18,4.48c-4.39,0-7.7-1.1-9.84-3.27s-3.22-5.49-3.22-9.87V89h9v21.62c0,2.36.45,4.07,1.48,5.08s2.88,1.54,5.46,1.54a36.84,36.84,0,0,0,15.1-3.66V89h9Zm-8-1h7V90h-7v24.22l-.29.13a38.06,38.06,0,0,1-15.81,3.89c-2.85,0-4.92-.61-6.15-1.82s-1.85-3.17-1.79-5.81V90h-7v22.22c0,4.11,1,7.2,2.93,9.17s5,3,9.13,3a38.76,38.76,0,0,0,18.24-4.74l.74-.39Z" style="fill:#b3ab7f"/><path d="M615,96.66H597.46v48.08h-8.08V96.66H572V89.54h43Z" style="fill:#fff"/><path d="M598,145.24h-9.08V97.16H571.52V89h44v8.12H598Zm-8.08-1H597V96.16h17.52V90h-42v6.12h17.36Z" style="fill:#b3ab7f"/><path d="M637.53,111.38h10.89q10.4,0,14.43,3.76t4,13.44c0,6.45-1.29,10.87-3.84,13.24s-7,3.56-13.37,3.56q-12.87,0-20-.64h-.16V89.54h8Zm0,27,10.89.08c4.21,0,7-.67,8.35-2s2-4,2-8-.68-6.67-2-8.16-4.14-2.24-8.35-2.24H637.53Zm46.89-48.8v55.2h-8V89.54Z" style="fill:#fff"/><path d="M649.69,145.88c-8.55,0-15.29-.22-20-.64H629V89h9v21.84h10.39c7,0,12,1.31,14.78,3.89s4.2,7.24,4.2,13.81-1.35,11.15-4,13.61S656.14,145.88,649.69,145.88ZM630,144.27c4.74.41,11.34.61,19.66.61,6.19,0,10.57-1.15,13-3.43s3.68-6.59,3.68-12.87-1.31-10.68-3.89-13.07-7.32-3.63-14.09-3.63H637V90h-7Zm54.89,1h-9V89h9Zm-8-1h7V90h-7Zm-28.5-5.32L637,138.84V117.52h11.39c4.4,0,7.25.79,8.72,2.4s2.17,4.39,2.17,8.5-.71,6.91-2.19,8.36S652.81,138.92,648.42,138.92ZM638,137.84l10.39.08c4.05,0,6.75-.63,8-1.86s1.89-3.8,1.89-7.64-.64-6.43-1.91-7.82-3.94-2.08-8-2.08H638Z" style="fill:#b3ab7f"/></svg>