<?xml version="1.0" standalone="no"?>
<!DOCTYPE svg PUBLIC "-//W3C//DTD SVG 20010904//EN"
 "http://www.w3.org/TR/2001/REC-SVG-20010904/DTD/svg10.dtd">
<svg version="1.0" xmlns="http://www.w3.org/2000/svg"
 width="700.000000pt" height="700.000000pt" viewBox="0 0 700.000000 700.000000"
 preserveAspectRatio="xMidYMid meet">
<metadata>
Created by potrace 1.14, written by Peter Selinger 2001-2017
</metadata>
<g transform="translate(0.000000,700.000000) scale(0.100000,-0.100000)"
fill="#000000" stroke="none">
<path d="M472 6980 c-223 -59 -395 -232 -452 -457 -20 -75 -20 -123 -17 -3052
2 -2814 3 -2979 20 -3026 39 -112 81 -179 162 -260 91 -91 191 -147 304 -171
100 -21 5937 -21 6026 1 232 55 411 232 469 466 15 60 16 318 15 3015 -1 3280
5 3015 -71 3166 -81 159 -244 285 -418 322 -55 12 -531 14 -3015 15 -2870 0
-2952 -1 -3023 -19z"/>
</g>
</svg>
